<?xml version="1.0" encoding="utf-8"?>
<!-- Generator: Adobe Illustrator 21.0.2, SVG Export Plug-In . SVG Version: 6.00 Build 0)  -->
<svg version="1.1" id="Layer_1" xmlns="http://www.w3.org/2000/svg" xmlns:xlink="http://www.w3.org/1999/xlink" x="0px" y="0px"
	 viewBox="0 0 191.2 191.2" style="enable-background:new 0 0 191.2 191.2;" xml:space="preserve">
<style type="text/css">
	.st0{fill:#E0E0E0;}
</style>
<path class="st0" d="M95.6,0C42.8,0,0,42.8,0,95.6c0,52.8,42.8,95.6,95.6,95.6c52.8,0,95.6-42.8,95.6-95.6
	C191.2,42.8,148.4,0,95.6,0z M95.6,178.7c-45.8,0-83.1-37.3-83.1-83.1c0-45.8,37.3-83.1,83.1-83.1c45.8,0,83.1,37.3,83.1,83.1
	C178.7,141.4,141.4,178.7,95.6,178.7z"/>
<path class="st0" d="M76.5,106h-0.3c-0.7,6.3-5.7,10.5-12.8,10.5c-10,0-16.3-8.8-16.3-20.9c0-11.8,5.2-21,16.2-21
	c7,0,11.5,3.9,12.6,9.9H76h11.9h0.3V49H76v18.1c-3.5-1.7-7.8-2.7-12.7-2.7c-17.5,0-28.5,13.5-28.5,31.1c0,17.9,11.9,30.8,28.5,30.9
	c5.4,0,9.7-1.1,13.2-2.9v17.8h12.2v-35.5H76.5V106z"/>
<path class="st0" d="M142.9,95.7c5.4-2.4,9-7.4,9-14c0-5.6-1.7-9.6-5.2-12.6c-3.4-3-8.7-5-15-5h-14.8V49h-12.2v15.1v8.4v1.6h25.6
	c5.8,0,9.3,3.4,9.3,8.2c0,5.7-4.2,8.8-9.7,8.8h-23.3v0.1v8.9v0.1H130c5.5,0,9.7,2.6,9.7,8.3c0,4.8-3.5,7.7-9.3,7.7h-25.6v1.5v8.5v15
	H117v-15h14.8c6.3,0,11.6-1.4,15-4.4c3.5-3,5.2-6.7,5.2-12.2C151.8,103,148.3,98.1,142.9,95.7z"/>
</svg>
