<?xml version="1.0" encoding="utf-8"?>
<!-- Generator: Adobe Illustrator 21.0.2, SVG Export Plug-In . SVG Version: 6.00 Build 0)  -->
<svg version="1.1" id="Layer_1" xmlns="http://www.w3.org/2000/svg" xmlns:xlink="http://www.w3.org/1999/xlink" x="0px" y="0px"
	 viewBox="0 0 243.5 53.9" style="enable-background:new 0 0 243.5 53.9;" xml:space="preserve">
<style type="text/css">
	.st0{fill:#E0E0E0;}
</style>
<path class="st0" d="M20.7,37.6c-7.2,0-11.8-6.3-11.8-15.1c0-8.5,3.8-15.1,11.7-15.1c5.1,0,8.3,2.8,9.1,7.1h8.6
	C37.4,6.3,31.2,0,20.6,0C7.9,0,0,9.7,0,22.4c0,12.9,8.6,22.2,20.7,22.3c5.9,0,10.1-1.8,13-4.6c2.8-2.7,4.5-6.3,4.7-10.1h-8.5
	C29.4,34.5,25.8,37.6,20.7,37.6z"/>
<path class="st0" d="M49.9,17.8h-0.2v-4.9h-7.9v30.7H50v-15c0-6.5,3.9-9.3,9.2-8.8h0.2v-7.1c-0.5-0.1-1-0.2-1.9-0.2
	C53.9,12.5,51.8,14.3,49.9,17.8z"/>
<path class="st0" d="M78.3,26.9c-1,2.8-1.8,6.7-1.8,6.7h-0.1c0,0-1-3.9-2-6.7L69.8,13h-8.6l8.3,21.9c1.7,4.6,2.3,6.6,2.3,8.3
	c0,2.5-1.4,4.2-4.6,4.2h-2.8v6.5h4.8c6.3,0,8.6-2.5,10.9-9.3L90.8,13h-8.2L78.3,26.9z"/>
<rect x="91.7" y="25.3" class="st0" width="16.3" height="7"/>
<path class="st0" d="M139.6,20.7v-0.2c4-1.4,6.7-4.2,6.7-8.6c0-3.3-1.1-5.9-3.4-8c-2.2-2-5.8-3.1-10.4-3.1h-19.2v42.8H133
	c4.6,0,8.3-1.2,10.8-3.4c2.5-2.1,3.8-4.9,3.8-8.9C147.6,26,144.3,22.1,139.6,20.7z M122,7.9h9.6c3.9,0,6.2,1.8,6.2,5
	c0,3.4-2.6,5.2-6.4,5.2H122V7.9z M132,36.5h-10h-0.1v-12h9.8c4,0,7,2.1,7,6.2C138.7,34.2,136.2,36.5,132,36.5z"/>
<path class="st0" d="M178.5,23.5c0-7.2-3.8-11.3-13-11.3c-9,0-13.1,4.7-13.3,10.1h7.3c0.2-2.9,2.1-4.3,5.9-4.3
	c3.5,0,5.2,1.5,5.2,3.7c0,2.4-2.3,2.8-7.4,3.5c-6.9,1-12.4,3.1-12.4,9.9c0,6.1,4.4,9.4,10.7,9.4c5.3,0,7.5-1.8,9.1-4.1h0.1
	c0.1,1.4,0.4,2.8,1,3.4h7.9v-0.3c-0.7-0.6-1.1-2-1.1-4.3V23.5z M170.7,32.9c0,3-2.6,5.9-7.3,5.9c-2.9,0-4.8-1-4.8-3.9
	c0-2.9,2.1-3.8,6.4-4.8c2-0.5,4.3-1,5.7-1.8V32.9z"/>
<path class="st0" d="M200.3,12c-4.3,0-6.9,2-8.6,4.6h-0.2V0.8h-8.2v42.9h7.9v-3.8h0.1c1.8,2.8,4.8,4.7,9.3,4.7c7.7,0,13-6.3,13-16.3
	C213.6,18.7,208,12,200.3,12z M198.7,37.6c-4.6,0-7.4-3.6-7.4-9.2c0-5.7,1.9-9.8,7.1-9.8c4.5,0,6.8,4,6.8,9.7
	C205.2,34.3,202.8,37.8,198.7,37.6z"/>
<path class="st0" d="M235.3,13L231,26.9c-1,2.8-1.8,6.7-1.8,6.7h-0.1c0,0-1-3.9-2-6.7L222.5,13h-8.6l8.3,21.9
	c1.7,4.6,2.3,6.6,2.3,8.3c0,2.5-1.4,4.2-4.6,4.2h-2.8v6.5h4.8c6.3,0,8.6-2.5,10.9-9.3L243.5,13H235.3z"/>
</svg>
